<svg width="84" height="84" viewBox="0 0 84 84" fill="none" xmlns="http://www.w3.org/2000/svg">
<path fill-rule="evenodd" clip-rule="evenodd" d="M35 4.375C36.4497 4.375 37.625 5.55025 37.625 7V14H46.375V7C46.375 5.55025 47.5503 4.375 49 4.375C50.4497 4.375 51.625 5.55025 51.625 7V14H56C63.732 14 70 20.268 70 28V32.375H77C78.4497 32.375 79.625 33.5503 79.625 35C79.625 36.4497 78.4497 37.625 77 37.625H70V46.375H77C78.4497 46.375 79.625 47.5503 79.625 49C79.625 50.4497 78.4497 51.625 77 51.625H70V56C70 63.732 63.732 70 56 70H51.625V77C51.625 78.4497 50.4497 79.625 49 79.625C47.5503 79.625 46.375 78.4497 46.375 77V70H37.625V77C37.625 78.4497 36.4497 79.625 35 79.625C33.5503 79.625 32.375 78.4497 32.375 77V70H28C20.268 70 14 63.732 14 56V51.625H7C5.55025 51.625 4.375 50.4497 4.375 49C4.375 47.5503 5.55025 46.375 7 46.375H14V37.625H7C5.55025 37.625 4.375 36.4497 4.375 35C4.375 33.5503 5.55025 32.375 7 32.375H14V28C14 20.268 20.268 14 28 14H32.375V7C32.375 5.55025 33.5503 4.375 35 4.375ZM38.5 31.5C34.634 31.5 31.5 34.634 31.5 38.5V45.5C31.5 49.366 34.634 52.5 38.5 52.5H45.5C49.366 52.5 52.5 49.366 52.5 45.5V38.5C52.5 34.634 49.366 31.5 45.5 31.5H38.5Z" fill="#FB1EFF"/>
</svg>
