<svg width="60" height="25" viewBox="0 0 60 25" fill="none" xmlns="http://www.w3.org/2000/svg">
<path d="M8.504 8.061C4.115 8.061 0.6995 11.493 0.6995 16.179C0.6995 20.8815 4.115 24.3135 8.504 24.3135C11.078 24.3135 12.9755 23.274 14.213 21.6735V24H16.6715V0.239999H14.213V10.701C12.9755 9.117 11.078 8.061 8.504 8.061ZM8.801 10.371C12.0515 10.371 14.3615 12.879 14.3615 16.179C14.3615 19.4955 12.0515 22.0035 8.801 22.0035C5.4845 22.0035 3.2075 19.413 3.2075 16.179C3.2075 12.9615 5.4515 10.371 8.801 10.371ZM29.015 8.061C24.56 8.061 21.26 11.4105 21.26 16.1955C21.26 21.03 24.5435 24.3135 29.1635 24.3135C31.457 24.3135 33.635 23.736 35.582 21.8715L34.262 20.1885C32.9255 21.4095 31.2425 22.152 29.312 22.152C26.4905 22.152 24.131 20.4195 23.7845 17.0535H36.308C36.341 16.773 36.3575 16.443 36.3575 16.1295C36.3245 11.3775 33.2555 8.061 29.015 8.061ZM28.9655 10.2555C31.622 10.2555 33.536 12.1365 33.8495 15.057H23.8175C24.2135 12.2355 26.078 10.2555 28.9655 10.2555ZM59.2446 0.899998H56.0931L49.3611 10.1565L42.6456 0.899998H39.4446L47.7111 12.186L39.0486 24H42.1836L49.3116 14.2155L56.4231 24H59.6241L50.9616 12.186L59.2446 0.899998Z" fill="black"/>
</svg>
