<svg width="196" height="196" viewBox="0 0 196 196" fill="none" xmlns="http://www.w3.org/2000/svg">
<g filter="url(#filter0_f_701_652)">
<path fill-rule="evenodd" clip-rule="evenodd" d="M91 60.375C92.4497 60.375 93.625 61.5503 93.625 63V70H102.375V63C102.375 61.5503 103.55 60.375 105 60.375C106.45 60.375 107.625 61.5503 107.625 63V70H112C119.732 70 126 76.268 126 84V88.375H133C134.45 88.375 135.625 89.5503 135.625 91C135.625 92.4497 134.45 93.625 133 93.625H126V102.375H133C134.45 102.375 135.625 103.55 135.625 105C135.625 106.45 134.45 107.625 133 107.625H126V112C126 119.732 119.732 126 112 126H107.625V133C107.625 134.45 106.45 135.625 105 135.625C103.55 135.625 102.375 134.45 102.375 133V126H93.625V133C93.625 134.45 92.4497 135.625 91 135.625C89.5503 135.625 88.375 134.45 88.375 133V126H84C76.268 126 70 119.732 70 112V107.625H63C61.5503 107.625 60.375 106.45 60.375 105C60.375 103.55 61.5503 102.375 63 102.375H70V93.625H63C61.5503 93.625 60.375 92.4497 60.375 91C60.375 89.5503 61.5503 88.375 63 88.375H70V84C70 76.268 76.268 70 84 70H88.375V63C88.375 61.5503 89.5503 60.375 91 60.375ZM94.5 87.5C90.634 87.5 87.5 90.634 87.5 94.5V101.5C87.5 105.366 90.634 108.5 94.5 108.5H101.5C105.366 108.5 108.5 105.366 108.5 101.5V94.5C108.5 90.634 105.366 87.5 101.5 87.5H94.5Z" fill="#FB1EFF"/>
</g>
<path fill-rule="evenodd" clip-rule="evenodd" d="M91 60.375C92.4497 60.375 93.625 61.5503 93.625 63V70H102.375V63C102.375 61.5503 103.55 60.375 105 60.375C106.45 60.375 107.625 61.5503 107.625 63V70H112C119.732 70 126 76.268 126 84V88.375H133C134.45 88.375 135.625 89.5503 135.625 91C135.625 92.4497 134.45 93.625 133 93.625H126V102.375H133C134.45 102.375 135.625 103.55 135.625 105C135.625 106.45 134.45 107.625 133 107.625H126V112C126 119.732 119.732 126 112 126H107.625V133C107.625 134.45 106.45 135.625 105 135.625C103.55 135.625 102.375 134.45 102.375 133V126H93.625V133C93.625 134.45 92.4497 135.625 91 135.625C89.5503 135.625 88.375 134.45 88.375 133V126H84C76.268 126 70 119.732 70 112V107.625H63C61.5503 107.625 60.375 106.45 60.375 105C60.375 103.55 61.5503 102.375 63 102.375H70V93.625H63C61.5503 93.625 60.375 92.4497 60.375 91C60.375 89.5503 61.5503 88.375 63 88.375H70V84C70 76.268 76.268 70 84 70H88.375V63C88.375 61.5503 89.5503 60.375 91 60.375ZM94.5 87.5C90.634 87.5 87.5 90.634 87.5 94.5V101.5C87.5 105.366 90.634 108.5 94.5 108.5H101.5C105.366 108.5 108.5 105.366 108.5 101.5V94.5C108.5 90.634 105.366 87.5 101.5 87.5H94.5Z" fill="#FB1EFF"/>
<defs>
<filter id="filter0_f_701_652" x="-4" y="-4" width="204" height="204" filterUnits="userSpaceOnUse" color-interpolation-filters="sRGB">
<feFlood flood-opacity="0" result="BackgroundImageFix"/>
<feBlend mode="normal" in="SourceGraphic" in2="BackgroundImageFix" result="shape"/>
<feGaussianBlur stdDeviation="30" result="effect1_foregroundBlur_701_652"/>
</filter>
</defs>
</svg>
